<svg xmlns="http://www.w3.org/2000/svg" xmlns:xlink="http://www.w3.org/1999/xlink" stroke="#000000" fill="#1a9850" style="background-color:#d73027;" version="1.1" x="0px" y="0px" viewBox="0 0 136.191 112.98625" enable-background="new 0 0 136.191 90.389" xml:space="preserve"><circle cx="106.233" cy="63.886" r="6.625"/><path d="M129.361,60.552V47.008h-3v13.531c-0.168,0.097-0.327,0.209-0.479,0.341l-14.468,12.686  c-1.441-0.54-3.233-0.766-5.185-0.765c-4.743,0-8.593,1.302-8.593,5.376v5.459h17.188v-5.082l11.533-10.113v14.698h3V65.81  l0.479-0.419c1.246-1.093,1.37-2.989,0.278-4.233C129.895,60.904,129.636,60.711,129.361,60.552z"/><circle cx="32.26" cy="63.886" r="6.625"/><path d="M32.26,72.8c-1.948-0.001-3.74,0.225-5.183,0.765L12.61,60.879c-0.149-0.132-0.312-0.244-0.479-0.342v-13.53h-3v13.545  c-0.274,0.159-0.534,0.354-0.756,0.604c-1.092,1.244-0.968,3.142,0.278,4.232l0.478,0.419v17.328h3V68.439l11.534,10.113v5.082  h17.188v-5.459C40.854,74.102,37.005,72.8,32.26,72.8z"/><circle cx="69.244" cy="64.758" r="6.625"/><path d="M88.58,57.072L74.039,74.295c-1.37-0.441-3.02-0.624-4.795-0.623c-1.773,0-3.423,0.183-4.792,0.624L49.91,57.071  c-1.067-1.265-2.96-1.427-4.229-0.355c-1.267,1.067-1.427,2.962-0.355,4.229l15.325,18.153v5.411h17.187v-5.411l15.326-18.153  c1.068-1.267,0.909-3.16-0.355-4.229C91.539,55.645,89.648,55.807,88.58,57.072z"/><path d="M9.008,7.007v39.001h120.33V7.007H9.008z M47.301,24.497c-0.369,2.422-1.497,3.878-2.789,5.279  c-2.849,2.967-6.274,5.107-8.453,7.111c-2.197-1.813-3.291-2.389-5.021-3.893c-1.63-1.417-3.487-2.897-4.764-4.679  c-1.236-1.726-2.24-4.759-1.459-7.51c0.641-2.256,2.408-4.059,5.365-4.249c3.611-0.037,5.002,2.389,5.836,4.204  c0.843-1.779,1.985-3.956,5.452-4.204c2.003-0.02,3.417,0.79,4.334,1.717C47.244,19.732,47.694,21.934,47.301,24.497z   M80.302,24.497c-0.368,2.422-1.497,3.878-2.789,5.279c-2.849,2.967-6.273,5.107-8.453,7.111c-2.197-1.813-3.291-2.389-5.021-3.893  c-1.63-1.417-3.487-2.897-4.764-4.679c-1.236-1.726-2.24-4.759-1.459-7.51c0.641-2.256,2.408-4.059,5.365-4.249  c3.611-0.037,5.002,2.389,5.836,4.204c0.844-1.779,1.985-3.956,5.452-4.204c2.004-0.02,3.418,0.79,4.335,1.717  C80.246,19.732,80.696,21.934,80.302,24.497z M113.305,24.497c-0.368,2.422-1.497,3.878-2.789,5.279  c-2.849,2.967-6.274,5.107-8.453,7.111c-2.197-1.813-3.291-2.389-5.022-3.893c-1.63-1.417-3.486-2.897-4.764-4.679  c-1.236-1.726-2.24-4.759-1.459-7.51c0.641-2.256,2.408-4.059,5.364-4.249c3.611-0.037,5.003,2.389,5.837,4.204  c0.843-1.779,1.985-3.956,5.452-4.204c2.004-0.02,3.418,0.79,4.335,1.717C113.249,19.732,113.698,21.934,113.305,24.497z"/><text x="0" y="105.389" fill="#000000" font-size="5px" font-weight="bold" font-family="'Helvetica Neue', Helvetica, Arial-Unicode, Arial, Sans-serif">Created by corpus delicti</text><text x="0" y="110.389" fill="#000000" font-size="5px" font-weight="bold" font-family="'Helvetica Neue', Helvetica, Arial-Unicode, Arial, Sans-serif">from the Noun Project</text></svg>
