<svg xmlns="http://www.w3.org/2000/svg" xmlns:xlink="http://www.w3.org/1999/xlink" version="1.1" x="0px" y="0px" viewBox="0 0 100 125" style="enable-background:new 0 0 100 100;" xml:space="preserve"><path d="M33.2,52.5c0-0.3,0-0.6,0.1-0.8c0.1-0.5,0.2-1,0.3-1.4c0.1-0.7,0.3-1.3,0.5-2.2c0.1-0.6,0.2-0.9,0.3-1.3  c0.1-0.5,0.2-1,0.4-1.9c0.2-0.7,0.3-1.1,0.3-1.3c0.4-1.5,1.2-2.9,2.4-4c1-0.7,2.1-1.1,3.3-1.1c0.7,0,1.4,0.2,2,0.6  c0.3,0.2,0.5,0.4,0.7,0.7c-0.1,0-0.2-0.1-0.3-0.1c-0.4-0.2-0.9-0.2-1.3-0.2c-0.1,0-0.1,0-0.2,0c-0.1,0-0.1,0-0.2,0  c-0.4,0.1-0.8,0.3-1.1,0.5c-0.4,0.3-0.8,0.7-1.1,1.2c-0.4,0.7-0.6,1.6-0.5,2.4c0,0.2,0,0.4,0,0.6l0,0c0,1.6,0.6,3.1,1.7,4.3  c0.4,0.4,0.8,0.7,1.2,0.9c0.2,0,0.4-0.1,0.6-0.2c1.3-0.7,2-2.6,2.2-3.9c0.1-0.9,0-1.8-0.3-2.7c-0.2-0.1-0.5-0.1-0.7-0.2  c-1-0.1-1.9-0.1-2.9,0.2c-0.5,0.1-0.9,0.3-1.4,0.6c-0.1-1.5,0.8-2.8,2.2-3.3c0.1,0,0.2,0,0.2-0.1c0.4-0.1,0.8,0,1.2,0.1l0,0  c1,0.6,1.7,1.6,1.9,2.8c0.2,0.8,0.3,1.7,0.2,2.5c-0.2,1.6-1,3-2.2,4.1c-0.2,0.1-0.3,0.2-0.5,0.3c0.2,0.1,0.3,0.2,0.5,0.3  c0.2,0.2,0.4,0.4,0.5,0.6c0.5,0.7,0.8,1.5,0.9,2.3c-0.3-0.6-0.8-1.2-1.3-1.6c-1.2-1-2.8-1.5-4.4-1.5c-0.6,0-1.1,0-1.7,0.2  c-0.7,0.1-1.3,0.4-1.9,0.7c-0.5,0.3-0.9,0.7-1.3,1C33.7,51.9,33.4,52.2,33.2,52.5z M53.2,98.2l-8,0l-1.4-3.6h0l-0.4-0.9  c-0.9,0.1-1.8,0.1-2.7,0.2c-1.7,0.1-3.4,0.1-5.1,0l-1.1,2.8c0,0,0,0,0.1,0c0.6-0.1,1.3-0.1,1.9,0.1c0.4,0.1,0.8,0.3,1.2,0.6  c0.3,0.3,0.5,0.6,0.6,1l-8.1,0c0,0,0.3-0.8,0.6-1.7l1.1-3.2c-0.3-0.1-0.5-0.1-0.7-0.1c-0.2-0.1-0.4-0.1-0.6-0.3  c-0.2-0.1-0.3-0.2-0.4-0.4c-0.1-0.4-0.2-0.9-0.1-1.3c0-0.1,0-0.2,0-0.2c-0.1-2.9-0.2-5.7-0.3-8.6c0-0.6,0-2.7,0-6.8  c0-1.1,0-2.9,0.1-5.1c0-0.2,0-0.6,0.1-1.1c0.1-1.3,0.2-2.7,0.3-4.4c0.2-2.8,0.6-5.6,1.4-8.3c0.5-1.7,1.3-3.3,2.5-4.6  c0.4-0.4,0.9-0.7,1.4-1c0.5-0.3,1-0.5,1.6-0.6c0.7-0.2,1.5-0.2,2.2,0c1.2,0.1,2.4,0.6,3.4,1.3c1.2,1,1.7,2.4,2.4,4.4  c0.2,0.5,0.3,1.1,0.3,1.1c0.3,0.9,0.4,1.7,0.6,2.5c1,4.8,1.5,8.7,1.6,10.2c0.2,1.9,0.5,4,0.6,6.1c0.1,1.1,0.1,1.7,0.2,2  c0,2.1,0.1,4,0.2,5.9c0.1,0.9,0.1,1.8,0.1,2.6c0,0.5,0,1,0.1,1.6c0,0.3,0,0.6,0,1c0,0.3,0,0.7,0,1.1l0,0.3c0.1,0.6,0,1.3-0.2,1.9  c-0.1,0.2-0.2,0.4-0.3,0.6c-0.3,0.2-0.6,0.3-1,0.3c-0.1,0-0.2,0-0.3,0l1.1,3.2l0.1,0.1c0.8-0.1,1.6-0.1,2.5,0.1  c0.6,0.1,1.2,0.3,1.7,0.8C52.9,97.6,53.1,97.9,53.2,98.2L53.2,98.2z M42.6,66.2c0-0.1-0.1-0.1-0.1-0.1c-0.2-0.3-0.5-0.7-0.7-1.1  c-0.1-0.2-0.3-0.4-0.4-0.7c-0.5-0.8-0.9-1.6-1.3-2.4c-0.4-0.7-0.8-1.5-1.2-2.6c-0.4-1.1-0.8-2.2-1.1-3.3c0-0.1-0.2-0.2-0.3-0.2  c-0.1,0-0.2,0.2-0.2,0.3c0.1,0.4,0.2,0.9,0.4,1.3c0.2,0.7,0.5,1.4,0.8,2.1c0.4,1.1,0.9,1.9,1.2,2.6c0.4,0.8,0.9,1.6,1.3,2.4  c0.1,0.2,0.3,0.4,0.4,0.7c0.2,0.4,0.4,0.8,0.7,1.1c0,0,0.1,0.1,0.1,0.1c0.1,0.2,0.5,0.7,0.5,0.9c0,0,0,0.1,0,0.1  c0,0.1,0,0.1-0.1,0.2l0,0c-0.1,0.1-0.1,0.1-0.2,0.2c-0.3,0.2-0.6,0.4-0.8,0.6c-0.8,0.5-1.5,1-2.4,1.4c0,0-0.1,0-0.1,0.1  c0,0-0.1,0-0.1,0c-0.1,0.1-0.2,0.2-0.1,0.3s0.2,0.2,0.3,0.1c0.1,0,0.1-0.1,0.2-0.1c0.5,1.1,1.8,1.6,2.9,1.1c1-0.7,1.2-2.1,0.5-3.1  c0,0-0.1-0.1-0.1-0.1c0.1-0.1,0.2-0.1,0.2-0.2c0.1-0.1,0.2-0.3,0.3-0.4c0,0,0-0.1,0-0.1C43.3,67.1,42.9,66.6,42.6,66.2L42.6,66.2z"/><path d="M17.2,46.1c0.1,0.2,0.3,0.3,0.6,0.4c-0.1,0.3-0.2,0.5-0.4,0.7c-0.2,0.2-0.5,0.4-0.8,0.4c-0.3,0.1-0.7,0.1-1,0  c-0.2-0.1-0.6-0.2-0.7-0.4c-0.1-0.2,0.1-0.4,0.4-0.8c0.2-0.3,0.3-0.6,0.4-1c0.2-0.8,0.1-1.6-0.1-2.4c-0.1-0.3-0.2-0.6-0.3-0.9  c-1.6,0.6-3.4,0.6-5,0c-0.2,0.4-0.3,0.8-0.4,1.2c-0.2,0.8-0.2,1.6,0,2.4c0.1,0.2,0.2,0.5,0.3,0.7c0.1,0.2,0.2,0.4,0.3,0.5  c0,0.2-0.1,0.3-0.2,0.5c-0.2,0.2-0.4,0.3-0.6,0.3c-0.5,0.1-0.9,0-1.3-0.3c-0.3-0.2-0.5-0.4-0.7-0.6c0.2,0,0.5-0.2,0.6-0.4  c0.1-0.1,0.1-0.3,0.1-0.4c0-0.4,0-0.7-0.1-1.1c0-0.3-0.1-0.6-0.1-1c0-0.4,0.1-0.7,0.2-1.1c0.1-0.4,0.2-0.8,0.4-1.2  c0.3-0.7,0.7-1.4,1.2-2c0.8-0.7,1.8-1.2,2.9-1.2c1.2,0,2.4,0.5,3.2,1.4c0.7,0.8,1.1,1.8,1.3,2.8c0.1,0.4,0.1,1,0.1,1  c0,0.1,0,0.3,0,0.6C17.2,45.5,17,45.8,17.2,46.1z M15,57.9c0.1,0,0.3,0,0.5,0c1.3,0.3,2.3,1.5,2.3,2.8l0,0.6  c-0.2,1.7-1.5,3.8-5.2,6.3c-3.7-2.7-4.9-4.8-5-6.5l0-0.6c0-1.4,1-2.5,2.4-2.8c0.2,0,0.3,0,0.5,0c1,0,1.8,0.5,2.3,1.3  C13.1,58.4,14,57.9,15,57.9 M11.2,94.7c-0.5,0-1.1,0-1.6,0c-0.1,0.1-0.1,0.2-0.2,0.4c0,0.1-0.1,0.1-0.1,0.2  c-0.1,0.1-0.1,0.3-0.2,0.4C9,95.8,8.9,95.9,8.9,96c-0.2,0.2-0.5,0.4-0.8,0.6c-0.7,0.2-1.3,0.4-2,0.4c-0.4,0-0.8,0.2-1.1,0.4  c-0.2,0.2-0.3,0.3-0.4,0.5c-0.1,0.1-0.1,0.2-0.1,0.4l7.8,0l0-3.6C12,94.7,11.5,94.7,11.2,94.7z M20.7,98.3c0-0.1-0.1-0.2-0.1-0.4  c-0.1-0.2-0.2-0.4-0.4-0.5c-0.3-0.2-0.7-0.4-1.1-0.4c-0.7-0.1-1.3-0.2-2-0.4c-0.3-0.1-0.6-0.3-0.8-0.6c-0.1-0.1-0.2-0.2-0.2-0.4  c-0.1-0.1-0.2-0.3-0.2-0.4c0-0.1-0.1-0.1-0.1-0.2c-0.1-0.1-0.1-0.2-0.2-0.4c-0.5,0-1,0-1.6,0c-0.3,0-0.8,0-1.1,0l0,3.6L20.7,98.3z   M24,62.3c-0.1,0.2-0.3,0.4-0.4,0.6v6.8c0,0.3-0.2,0.5-0.5,0.5h-2.9l0.6,4.7c0,0.4-0.3,0.7-0.7,0.7h-2.8l-1,18.4L13,94l0-18.3h-0.6  l0,18.3L9,94l-1-18.4H5.1c-0.4,0-0.7-0.3-0.7-0.7L5,70.2H2.2c-0.3,0-0.5-0.2-0.5-0.5v-6.9c-0.1-0.1-0.2-0.2-0.3-0.3l0,0  c-0.1-0.2-0.2-0.4-0.3-0.6c-0.2-0.7-0.2-1.4,0.1-2c0.1-0.4,0.3-0.8,0.6-1.2l0-1v-2.2c0-0.3,0.2-0.5,0.5-0.5h1.3  C4,54,4.7,53,5.6,52.2c0.7-0.7,1.5-1.3,2.3-1.8c0.1,0,0.2-0.1,0.2-0.1c0,0,0.3-0.1,0.7-0.3c1.3-0.4,2.6-0.6,3.9-0.7  c1.3,0,2.6,0.3,3.9,0.8c0.1,0.1,0.4,0.1,0.6,0.3c0.7,0.3,1.3,0.7,1.8,1.2c0.2,0.1,0.3,0.3,0.4,0.4c1,0.8,1.8,1.8,2.3,3  c0.1,0,1.3,0,1.3,0c0.3,0,0.5,0.2,0.5,0.5v3.2c0.2,0.4,0.3,0.7,0.4,1c0,0,0,0.1,0.1,0.3C24.4,60.7,24.4,61.5,24,62.3z M2.5,63  c0.1,0,0.1,0,0.2,0c0.4,0,0.9-0.2,1.2-0.4c0.1-0.1,0.3-0.2,0.4-0.4c0.2-0.2,0.3-0.5,0.3-0.8c0-0.4-0.1-0.8-0.4-1.1  c0,0-0.1-0.1-0.1-0.1C4,60,4,60,3.9,59.9c-0.4-0.2-0.8-0.4-1.2-0.3l0,0c-0.1,0-0.3,0-0.4,0V63C2.3,63,2.4,63,2.5,63L2.5,63z   M22.6,63.4c-0.3,0-0.5-0.1-0.8-0.2c-0.3-0.1-0.5-0.2-0.7-0.4c-0.5-0.4-0.8-0.9-0.9-1.6c0-0.7,0.3-1.3,0.8-1.7c0,0,0.1,0,0.1-0.1  c0.2-0.1,0.4-0.3,0.7-0.3c0.3-0.1,0.5-0.1,0.8-0.1V56h-20v3.2c0.5,0,1.1,0.1,1.5,0.4l0,0c0,0,0.1,0,0.1,0.1c0.9,0.7,1,1.9,0.4,2.8  c-0.1,0.1-0.2,0.2-0.3,0.3c0,0-0.1,0.1-0.1,0.1c-0.4,0.3-1,0.5-1.5,0.5v5.8h20L22.6,63.4z M23.1,59.6c-0.1,0-0.3,0-0.4,0l0,0  c-0.3,0-0.5,0-0.8,0.1c-0.2,0.1-0.3,0.1-0.4,0.2c-0.1,0-0.1,0.1-0.2,0.1c-0.3,0.3-0.5,0.8-0.5,1.2c0,0.5,0.3,0.9,0.7,1.2  c0.1,0.1,0.3,0.2,0.4,0.2c0.2,0.1,0.5,0.2,0.8,0.2c0.1,0,0.2,0,0.2,0c0.1,0,0.1,0,0.2,0V59.6z M8.8,44.7c-0.5-2.1,0.2-4.2,1.9-5.6  c0.5-0.4,1.1-0.6,1.7-0.6c0.8,0,1.7,0.2,2.3,0.8c1.7,1.2,2,3.7,1.6,5.4c-0.4,1.6-1.7,4.2-3.8,4.2l0,0C10.5,48.9,9.2,46.4,8.8,44.7z   M9.3,44.6c0.3,1.4,1.5,3.8,3.2,3.8l0,0c1.8,0,3-2.3,3.3-3.8c0.4-1.6,0-3.9-1.4-4.9c-0.6-0.5-1.3-0.7-2-0.7c-0.5,0-1,0.2-1.5,0.5  C9.5,40.8,8.9,42.8,9.3,44.6z"/><path d="M88.3,8.8c0.2,1.7-0.6,4-3.7,7.4c-4.3-1.8-6-3.6-6.5-5.2L78,10.4c-0.3-1.4,0.4-2.7,1.7-3.3C79.8,7.1,80,7.1,80.1,7  c0.9-0.2,1.9,0.1,2.6,0.7c0.3-0.9,1.1-1.6,2.1-1.8c0.1,0,0.3-0.1,0.5-0.1c1.4-0.1,2.6,0.9,2.9,2.2L88.3,8.8z M95.3,16.1l-9.4,2.4  l3.4,13c-0.1,0.1-0.3,0.1-0.4,0.2c0.1-0.1,0.2-0.1,0.4-0.2c0.8-0.3,1.8-0.2,2.5,0.4c0.5,0.5,0.8,1.3,0.8,2c0.1,0.7-0.1,1.3-0.4,1.9  c-0.1,0.2-0.2,0.4-0.4,0.5l0,1.1l0.1,0c0,0.5,0.1,1.2,0.1,2c0.1,1.1,0,2.3,0,3.4c-0.1,1.5-0.4,2.9-0.9,4.3c-0.4,0.9-0.9,1.7-1.5,2.5  c-0.4,0.5-0.9,0.9-1.5,1.2c-0.3,0.2-0.6,0.3-1.2,0.7c0,0-0.1,0-0.1,0.1c-0.1,0.1-0.2,0.1-0.3,0.2c-0.1,0.1-0.2,0.2-0.3,0.2  c-0.2,0.2-0.4,0.4-0.6,0.6c-0.2,0.5-0.3,1-0.2,1.5c0,0.5,0,1,0,1.5c0.1,0.8,0,12.3,0,12.5H74.4V55.9c0-0.3-0.2-0.5-0.5-0.5l0,0  c0,0,0,0,0,0c0,0-0.1,0-0.1,0c-0.2,0-0.4,0.2-0.4,0.5V68h-2c0.6,1.4,1.7,2.5,3,3.2c0-0.7,0-1.5,0-2.2h10.9c0,0.7,0,1.4,0,2l0,0.6  c0,7.8,0,15.6,0,23.4c0.1,0.1,0.2,0.2,0.4,0.3c0.4,0.3,0.8,0.3,2.4,0.5c0.3,0,0.6,0.1,0.9,0.2c0.5,0.2,0.9,0.6,1.1,1.2  c0.1,0.3,0.2,0.6,0.2,1c0,0.1-0.1,0.1-0.3,0.1h-9.8V73.7c0-0.2-0.2-0.4-0.4-0.5c-0.1,0-0.2,0-0.3,0c-0.2,0.1-0.4,0.3-0.4,0.5v24.6  h-9.7c-0.2,0-0.3,0-0.3-0.1c0-0.3,0.1-0.7,0.2-1c0.2-0.5,0.6-0.9,1.1-1.2c0.3-0.1,0.6-0.2,0.9-0.2c1.6-0.2,2-0.2,2.4-0.5  c0.1-0.1,0.3-0.2,0.4-0.3c0-1.1,0-11.9,0-23.3c-1.6-0.8-2.8-2.1-3.5-3.7l0,0l0-0.1c-0.3-0.8-0.5-1.7-0.5-2.6v-8.8c0-1.9,0.8-3.6,2-5  c1.2-1.3,2.8-2,4.6-2.1c0.7-0.1,2.9-0.3,2.9-0.3l0.1,0l0,0c1.1-0.1,2.1-0.3,3.1-0.5c0.5-0.1,1.1-0.3,1.6-0.5  c0.8-0.3,1.5-0.8,2.1-1.3c0.6-0.6,1.1-1.2,1.5-2c0.2-0.4,0.3-0.8,0.4-1.2c0.1-0.6,0.2-1.1,0.2-1.7c0.1-1.8,0-4.1,0-4.5l0.2,0l0-1.2  c-0.2-0.1-0.4-0.3-0.6-0.5c-0.5-0.7-0.7-1.5-0.5-2.3c0-0.5,0.2-1,0.5-1.4c0.1-0.1,0.1-0.1,0.2-0.2c0,0-0.1,0-0.1,0.1  c0,0-0.1,0.1-0.1,0.1l-3.5-13.4l-10.1,2.5c-0.3,0.1-0.5-0.1-0.6-0.4L70.7,6.8c-0.1-0.3,0.1-0.5,0.4-0.6L91.5,1  c0.3-0.1,0.5,0.1,0.6,0.4l3.6,14.1C95.7,15.7,95.5,16,95.3,16.1z M88.8,33.5c-0.2,0.2-0.3,0.4-0.4,0.7c0,0.1,0,0.1,0,0.2  c0,0.1,0,0.1,0,0.2c0,0.2,0.1,0.3,0.1,0.5c0.1,0.1,0.1,0.3,0.2,0.4c0.2,0.2,0.3,0.3,0.5,0.5c0.1,0,0.1,0.1,0.1,0.2l0,1.3  c0.6,0,1.3,0,1.9,0l0-1.2c0-0.1,0-0.1,0.1-0.2c0.1-0.2,0.3-0.3,0.4-0.5c0.3-0.5,0.4-1.1,0.3-1.6c0-0.6-0.2-1.2-0.6-1.7  c-0.6-0.5-1.4-0.6-2.1-0.3l0.2,0.6c0.4,0,0.7,0.3,0.7,0.6c0,0.1,0,0.3-0.1,0.4c-0.1,0.1-0.1,0.2-0.2,0.2c0,0,0,0-0.1,0l0.2,0.8l0,0  c0.1,0.1,0.1,0.3,0,0.3c-0.1,0.1-0.3,0.1-0.3,0l-0.6-0.7c-0.1-0.1-0.1-0.2,0-0.3c0.1-0.2,0.3-0.4,0.4-0.5c0.1,0,0.1-0.1,0.1-0.1  c0.1,0,0.1,0,0.1-0.1l0,0c0-0.1,0-0.2,0-0.3c0,0,0,0-0.1,0c-0.1,0-0.1,0-0.2,0C89.2,33.1,89,33.3,88.8,33.5z M88.7,33l-0.1-0.2  c-0.1,0.2-0.1,0.3-0.1,0.5C88.5,33.1,88.6,33,88.7,33z M94.5,15.2L91.2,2.1L71.7,7l3.3,13.2L94.5,15.2z M76,44.4  c-0.5-2.1,0.2-4.3,1.9-5.7c0.5-0.4,1.1-0.6,1.7-0.6c0.9,0,1.7,0.2,2.4,0.8c1.7,1.3,2,3.7,1.6,5.5c-0.4,1.6-1.8,4.2-3.8,4.2l0,0  C77.7,48.6,76.4,46.1,76,44.4L76,44.4z M76.5,44.3c0.3,1.5,1.5,3.8,3.3,3.8l0,0c1.8,0,3-2.3,3.4-3.8c0.4-1.7,0-3.9-1.4-5  c-0.6-0.5-1.3-0.7-2-0.7c-0.5,0-1.1,0.2-1.5,0.5C76.7,40.4,76,42.4,76.5,44.3L76.5,44.3z"/><text x="0" y="115" fill="#000000" font-size="5px" font-weight="bold" font-family="'Helvetica Neue', Helvetica, Arial-Unicode, Arial, Sans-serif">Created by Lorie Shaull</text><text x="0" y="120" fill="#000000" font-size="5px" font-weight="bold" font-family="'Helvetica Neue', Helvetica, Arial-Unicode, Arial, Sans-serif">from the Noun Project</text></svg>